# generated from PmQm by Jehee Lee
:FULLY-SPECIFIED
:DEGREES
460
root 1.064878515 38.0808 -2.462938662 173.522996 -62.49875724 -171.6076734
RightUpLeg -29.38509777 4.812318947 1.539731438
RightLeg 16.36620478 0 0
RightFoot 7.285013521 -2.8397709 -0.41567748
RightToes 2.32829e-010 -1.59028e-015 9.93923e-017
Spine -10.1178 -6.00399 -1.72661
Spine1 13.3684 -7.93258 6.7795
HEad -9.08561 4.90566 -0.295565
LeftShoulder1 9.93923e-017 0 1.22299e-017
LeftArm 24.5905 24.621 -81.2319
LeftForeArm -46.0359 -23.8681 12.0075
LeftHand 0.858088 6.00119 -1.52961
RightShoulder 1.98785e-016 -4.96962e-017 1.55301e-017
RightArm 7.0644 -60.6268 77.2965
RightForeArm -26.1256 15.4337 -1.01533
RightHand 1.12325 -10.7692 -3.33988
LeftUpLeg 1.411698237 -6.792731585 19.95052024
LeftLeg 35.33363521 0 0
LeftFoot 8.271536074 -18.44197487 -17.36978782
LeftToes 8.82235e-011 9.04645e-011 1.87288e-011
461
root -0.2051507186 37.9969 -3.346902233 168.3211542 -63.25646409 -166.4666433
RightUpLeg -28.733078 3.844396391 3.809173236
RightLeg 21.56606054 0 0
RightFoot 4.20604186 -2.447900412 -0.8758920498
RightToes 2.32829e-010 -1.59028e-015 9.93923e-017
Spine -8.85864 -5.1147 2.15902
Spine1 13.2645 -6.98564 6.37604
HEad -10.1836 3.71447 -0.298579
LeftShoulder1 9.93923e-017 0 1.22299e-017
LeftArm 13.6046 27.8414 -82.5725
LeftForeArm -33.7381 -20.3283 4.26896
LeftHand 0.85281 5.94591 -1.68942
RightShoulder 1.98785e-016 -4.96962e-017 1.55301e-017
RightArm 4.79104 -57.8585 79.5258
RightForeArm -25.3247 15.0762 -0.454751
RightHand 1.12097 -10.7754 -3.21477
LeftUpLeg -3.064690227 -6.949133025 24.47831593
LeftLeg 45.11261038 0 0
LeftFoot 19.02066032 -17.05187805 -13.02010265
LeftToes 8.82235e-011 9.04645e-011 1.87288e-011
462
root -1.366513117 37.9889 -4.146372349 164.7573518 -63.81287401 -163.1839475
RightUpLeg -27.32342991 2.990248052 5.303404348
RightLeg 25.22834491 0 0
RightFoot 0.1463475499 -2.382488905 -1.245569184
RightToes 2.32829e-010 -1.59028e-015 9.93923e-017
Spine -7.82617 -4.18321 4.85693
Spine1 13.5892 -5.81217 5.89013
HEad -11.1141 2.29806 0.547046
LeftShoulder1 9.93923e-017 0 1.22299e-017
LeftArm 2.37092 30.3708 -83.2703
LeftForeArm -21.1373 -14.5294 -2.58577
LeftHand 0.879318 6.09409 -2.61043
RightShoulder 1.98785e-016 -4.96962e-017 1.55301e-017
RightArm 3.13328 -53.2422 81.7141
RightForeArm -23.927 14.2745 0.861444
RightHand 1.12761 -10.7757 -3.38363
LeftUpLeg -7.994759335 -6.756654023 25.50936357
LeftLeg 54.58519636 1.7671036 4.981905568
LeftFoot 26.26940098 -15.8013799 -14.03733251
LeftToes 8.82235e-011 9.04645e-011 1.87288e-011
463
root -2.53633777 38.2368 -4.956700773 163.3924844 -64.78813852 -162.2415041
RightUpLeg -24.66993971 3.537520389 5.590167115
RightLeg 25.98640032 0 0
RightFoot -2.364759615 -3.763692246 -1.327057964
RightToes 2.32829e-010 -1.59028e-015 9.93923e-017
Spine -7.471 -3.38381 6.01816
Spine1 13.8059 -4.71277 5.16031
HEad -10.7382 0.819757 1.88153
LeftShoulder1 9.93923e-017 0 1.22299e-017
LeftArm -1.51826 33.0471 -83.3931
LeftForeArm -15.0812 -9.44565 -6.17775
LeftHand 0.93976 6.5249 -4.42647
RightShoulder 1.98785e-016 -4.96962e-017 1.55301e-017
RightArm 4.08717 -48.0352 83.6402
RightForeArm -24.1846 14.0368 1.48387
RightHand 1.15347 -10.7282 -4.27077
LeftUpLeg -12.99879979 -6.731371946 24.25892096
LeftLeg 61.50202337 2.385808875 10.02149095
LeftFoot 25.82996069 -15.41520616 -11.27778823
LeftToes 8.82235e-011 9.04645e-011 1.87288e-011
464
root -3.846601488 38.6402 -5.630497909 164.0780099 -65.74916495 -163.4023181
RightUpLeg -21.23388149 4.088713776 4.961872868
RightLeg 24.88697227 0 0
RightFoot -3.999445814 -4.873720913 -0.5915469311
RightToes 2.32829e-010 -1.59028e-015 9.93923e-017
Spine -7.67037 -2.51773 6.47335
Spine1 13.688 -3.46845 3.80072
HEad -9.14405 -0.707546 2.91489
LeftShoulder1 9.93923e-017 0 1.22299e-017
LeftArm 1.10318 36.3486 -82.924
LeftForeArm -14.1159 -7.68597 -7.38561
LeftHand 1.00284 7.13454 -6.18465
RightShoulder 1.98785e-016 -4.96962e-017 1.55301e-017
RightArm 7.34038 -43.5911 85.2189
RightForeArm -27.2352 15.2275 0.003924370001
RightHand 1.18297 -10.6363 -5.35387
LeftUpLeg -17.54678741 -6.890458076 21.61624458
LeftLeg 65.08663168 1.656489924 12.66683876
LeftFoot 21.52070436 -15.05283265 -8.131153645
LeftToes 8.82235e-011 9.04645e-011 1.87288e-011
465
root -5.270301364 38.9605 -6.050978101 165.7935504 -66.06411007 -165.6029555
RightUpLeg -17.81160477 3.965452649 3.827270665
RightLeg 23.7004727 0 0
RightFoot -5.830635217 -4.701915282 0.9045565073
RightToes 2.32829e-010 -1.59028e-015 9.93923e-017
Spine -7.83645 -1.43061 7.21708
Spine1 13.4939 -1.89804 1.99475
HEad -7.51557 -2.16027 3.22743
LeftShoulder1 9.93923e-017 0 1.22299e-017
LeftArm 3.31971 40.2464 -81.5602
LeftForeArm -12.7848 -8.16886 -7.155
LeftHand 1.03904 7.59664 -7.14162
RightShoulder 1.98785e-016 -4.96962e-017 1.55301e-017
RightArm 13.4859 -40.2862 86.3907
RightForeArm -35.0111 17.704 -4.95831
RightHand 1.18406 -10.5387 -5.75478
LeftUpLeg -21.41681644 -6.961861557 18.62188343
LeftLeg 65.62441243 0.09675337112 12.14137427
LeftFoot 17.48068264 -13.75841466 -7.403867948
LeftToes 8.82235e-011 9.04645e-011 1.87288e-011
466
root -6.650874375 39.1443 -6.474952804 167.5933784 -65.87258907 -167.8783969
RightUpLeg -14.74595266 3.828525992 2.76494769
RightLeg 23.06405381 0 0
RightFoot -7.616661817 -3.881593739 2.015796245
RightToes 2.32829e-010 -1.59028e-015 9.93923e-017
Spine -7.68166 -0.17435 8.22232
Spine1 13.3304 -0.160738 0.328532
HEad -6.7365 -3.35321 3.01867
LeftShoulder1 9.93923e-017 0 1.22299e-017
LeftArm 5.60205 44.353 -79.4347
LeftForeArm -13.5077 -8.53464 -6.98397
LeftHand 1.03691 7.58639 -7.36546
RightShoulder 1.98785e-016 -4.96962e-017 1.55301e-017
RightArm 23.2456 -37.7105 87.0416
RightForeArm -47.9143 19.9529 -13.667
RightHand 1.16294 -10.4491 -5.53183
LeftUpLeg -24.57115201 -6.536820556 15.85296763
LeftLeg 63.67325471 -1.749210073 9.578111127
LeftFoot 14.21693963 -12.09359699 -7.81532952
LeftToes 8.82235e-011 9.04645e-011 1.87288e-011
467
root -8.018152034 39.2712 -6.890903601 169.3680748 -65.26292616 -169.9630019
RightUpLeg -11.97027603 3.877293881 1.780571739
RightLeg 22.45326705 0 0
RightFoot -8.901982582 -2.676524214 2.376073447
RightToes 2.32829e-010 -1.59028e-015 9.93923e-017
Spine -7.50668 1.16492 9.12466
Spine1 13.1693 1.53409 -1.02202
HEad -6.76522 -4.21988 2.61991
LeftShoulder1 9.93923e-017 0 1.22299e-017
LeftArm 7.35789 48.1467 -76.6541
LeftForeArm -14.7028 -10.3329 -5.82241
LeftHand 1.0147 7.29527 -7.40219
RightShoulder 1.98785e-016 -4.96962e-017 1.55301e-017
RightArm 27.874 -35.0547 86.6223
RightForeArm -54.4254 21.509 -20.8458
RightHand 1.13653 -10.2799 -5.47069
LeftUpLeg -27.04242017 -5.229309093 13.39870864
LeftLeg 59.28891225 -3.345849124 6.714366413
LeftFoot 10.08671265 -10.63778311 -7.464430833
LeftToes 8.82235e-011 9.04645e-011 1.87288e-011
468
root -9.370486496 39.3511 -7.312284703 170.72059 -64.4205379 -171.4388587
RightUpLeg -9.369306719 3.876870648 1.064407777
RightLeg 21.71198404 0 0
RightFoot -10.19194333 -1.421997023 2.478372883
RightToes 2.32829e-010 -1.59028e-015 9.93923e-017
Spine -7.5167 2.4629 10.0566
Spine1 13.1436 3.04149 -2.25914
HEad -7.17577 -4.74753 2.14411
LeftShoulder1 9.93923e-017 0 1.22299e-017
LeftArm 9.71386 51.2335 -73.7732
LeftForeArm -17.2206 -12.4679 -4.32667
LeftHand 1.00603 7.18139 -7.52092
RightShoulder 1.98785e-016 -4.96962e-017 1.55301e-017
RightArm 23.4667 -31.7158 85.2526
RightForeArm -49.3998 24.6436 -22.8614
RightHand 1.11765 -10.0563 -5.86373
LeftUpLeg -28.72812761 -3.115444792 11.29945412
LeftLeg 52.21006897 -4.450250658 4.437364326
LeftFoot 6.103576284 -9.116290082 -7.36737762
LeftToes 8.82235e-011 9.04645e-011 1.87288e-011
469
root -10.69513398 39.3275 -7.760562993 170.9332503 -63.72162963 -171.821067
RightUpLeg -6.680843938 3.749564808 0.8027319672
RightLeg 21.14743119 0 0
RightFoot -11.91647181 -0.5468940943 2.955735944
RightToes 2.32829e-010 -1.59028e-015 9.93923e-017
Spine -7.50674 3.43618 11.2677
Spine1 13.3803 4.13737 -3.40054
HEad -7.70232 -4.95186 1.66868
LeftShoulder1 9.93923e-017 0 1.22299e-017
LeftArm 9.94681 53.4464 -71.1492
LeftForeArm -17.9221 -13.2168 -3.49391
LeftHand 1.0069 7.19274 -7.40753
RightShoulder 1.98785e-016 -4.96962e-017 1.55301e-017
RightArm 21.8119 -28.0745 84.0461
RightForeArm -46.3925 27.0863 -24.6167
RightHand 1.13036 -10.0345 -6.34538
LeftUpLeg -29.32232098 -1.056627414 9.580008375
LeftLeg 42.47802723 -5.20046691 2.708635708
LeftFoot 4.836872306 -7.277574809 -8.239828177
LeftToes 8.82235e-011 9.04645e-011 1.87288e-011
